# xmcd
#
# Track frame offsets:
#	150
#	21902
#	48075
#	55927
#	75047
#	87702
#	104090
#	121104
#	126017
#	139350
#	153610
#
# Disc length: 2271 seconds
#
# Revision: 1
# Processed by: cddbd v1.5.1PL2 Copyright (c) Steve Scherf et al.
# Submitted via: EasyCDDAExtractor 9.0.0.1
#
DISCID=8e08dd0b
DTITLE=Mickey Newbury - 'frisco Mabel Joy
DYEAR=1971
DGENRE=Country
TTITLE0=An American Trilogy
TTITLE1=How Many Times (Must The Piper Be Paid For His Song)
TTITLE2=Interlude
TTITLE3=The Future's Not What It Used To Be
TTITLE4=Mobile Blue
TTITLE5=Frisco Depot
TTITLE6=You're Not My Same Sweet Baby
TTITLE7=Interlude
TTITLE8=Remember The Good
TTITLE9=Swiss Cottage Place
TTITLE10=How I Love Them Old Songs
EXTD=
EXTT0=
EXTT1=
EXTT2=
EXTT3=
EXTT4=
EXTT5=
EXTT6=
EXTT7=
EXTT8=
EXTT9=
EXTT10=
PLAYORDER=
